HIERARCHY
ROOT Hips
{
	OFFSET 0.000000 0.000000 0.000000
	CHANNELS 6 Xposition Yposition Zposition Yrotation Xrotation Zrotation
	JOINT Chest
	{
		OFFSET 0.000000 -0.009281 11.569106
		CHANNELS 3 Yrotation Xrotation Zrotation
		JOINT Chest2
		{
			OFFSET -0.000000 0.016865 9.269641
			CHANNELS 3 Yrotation Xrotation Zrotation
			JOINT Chest3
			{
				OFFSET -0.000000 0.000001 8.374491
				CHANNELS 3 Yrotation Xrotation Zrotation
				JOINT Chest4
				{
					OFFSET -0.000000 0.000001 8.374493
					CHANNELS 3 Yrotation Xrotation Zrotation
					JOINT Neck
					{
						OFFSET -0.000000 0.000002 12.152554
						CHANNELS 3 Yrotation Xrotation Zrotation
						JOINT Head
						{
							OFFSET -0.000000 0.040101 7.802319
							CHANNELS 3 Yrotation Xrotation Zrotation
							End Site
							{
								OFFSET -0.000000 0.020947 14.853096
							}
						}
					}
					JOINT RightCollar
					{
						OFFSET 2.894404 0.000001 6.791374
						CHANNELS 3 Yrotation Xrotation Zrotation
						JOINT RightShoulder
						{
							OFFSET 13.574684 0.000001 0.000000
							CHANNELS 3 Yrotation Xrotation Zrotation
							JOINT RightElbow
							{
								OFFSET 23.923903 0.000002 0.000000
								CHANNELS 3 Yrotation Xrotation Zrotation
								JOINT RightWrist
								{
									OFFSET 19.846718 0.012767 0.000000
									CHANNELS 3 Yrotation Xrotation Zrotation
									End Site
									{
										OFFSET 14.973145 0.000001 0.000000
									}
								}
							}
						}
					}
					JOINT LeftCollar
					{
						OFFSET -2.894404 0.000001 6.791374
						CHANNELS 3 Yrotation Xrotation Zrotation
						JOINT LeftShoulder
						{
							OFFSET -13.574684 -0.000001 0.000000
							CHANNELS 3 Yrotation Xrotation Zrotation
							JOINT LeftElbow
							{
								OFFSET -23.923903 -0.000002 0.000000
								CHANNELS 3 Yrotation Xrotation Zrotation
								JOINT LeftWrist
								{
									OFFSET -19.846718 0.012763 0.000000
									CHANNELS 3 Yrotation Xrotation Zrotation
									End Site
									{
										OFFSET -14.973145 -0.000001 0.000000
									}
								}
							}
						}
					}
				}
			}
		}
	}
	JOINT RightHip
	{
		OFFSET 9.469263 0.004643 0.045487
		CHANNELS 3 Yrotation Xrotation Zrotation
		JOINT RightKnee
		{
			OFFSET 0.000000 0.002661 -40.478676
			CHANNELS 3 Yrotation Xrotation Zrotation
			JOINT RightAnkle
			{
				OFFSET 0.000000 0.049106 -35.224068
				CHANNELS 3 Yrotation Xrotation Zrotation
				JOINT RightToe
				{
					OFFSET -0.000001 12.539529 -6.151390
					CHANNELS 3 Yrotation Xrotation Zrotation
					End Site
					{
						OFFSET -0.000001 5.044994 -1.291870
					}
				}
			}
		}
	}
	JOINT LeftHip
	{
		OFFSET -9.469263 0.004641 0.045487
		CHANNELS 3 Yrotation Xrotation Zrotation
		JOINT LeftKnee
		{
			OFFSET 0.000000 0.002661 -40.478676
			CHANNELS 3 Yrotation Xrotation Zrotation
			JOINT LeftAnkle
			{
				OFFSET 0.000000 0.049106 -35.224068
				CHANNELS 3 Yrotation Xrotation Zrotation
				JOINT LeftToe
				{
					OFFSET -0.000001 12.539529 -6.151390
					CHANNELS 3 Yrotation Xrotation Zrotation
					End Site
					{
						OFFSET -0.000001 5.044994 -1.291870
					}
				}
			}
		}
	}
}
MOTION
Frames: 14
Frame Time: 0.016667
12.293370 5.285843 82.967087 -6.989965 -3.663518 -112.682330 0.286330 -3.372195 -1.233387 0.122410 -1.496824 -0.536683 0.122410 -1.496824 -0.536686 0.090488 -1.122727 -0.402190 0.685705 -17.243627 -0.189261 1.202281 4.160985 -0.112939 3.445976 -0.920105 3.882274 61.693916 -15.809012 56.446743 -12.265468 -30.241735 87.652603 -46.072228 35.825100 40.687505 -8.984774 -1.834760 -6.644470 -56.213608 -12.304553 -54.377769 -14.034237 -30.576879 -52.235217 47.657454 21.645817 -44.178429 0.459397 -11.852275 -3.166093 0.021972 -1.864822 1.505554 0.769798 6.145723 0.047854 -0.012126 -0.019335 0.006441 0.393939 -11.855399 0.441843 0.388827 -1.068476 2.105936 -0.702803 5.189667 -0.850587 0.039445 -0.000728 -0.007572 
12.286211 5.304672 82.970100 -6.932592 -3.638652 -112.672358 0.288611 -3.334299 -1.234944 0.123482 -1.480322 -0.538048 0.123482 -1.480322 -0.538052 0.091304 -1.110351 -0.403214 0.682019 -17.179678 -0.196435 1.193246 4.279811 -0.126962 3.438800 -0.963043 3.901670 62.022953 -15.734283 56.561217 -12.503951 -29.572195 87.832176 -46.103019 36.273294 40.903332 -8.972686 -1.906897 -6.709739 -56.471553 -12.284499 -54.503550 -13.899953 -29.705032 -52.467331 47.541583 21.716709 -44.125778 0.450549 -11.796741 -3.130671 0.023389 -1.831332 1.453009 0.783482 6.116972 0.056479 -0.010158 -0.017948 0.006762 0.387854 -11.797285 0.462470 0.384763 -1.031441 2.081410 -0.703501 5.154267 -0.860644 0.041718 -0.001390 -0.007686 
12.275531 5.325195 82.972977 -6.876976 -3.613435 -112.665862 0.290441 -3.305310 -1.238422 0.123895 -1.467939 -0.540539 0.123895 -1.467940 -0.540538 0.091618 -1.101065 -0.405082 0.677055 -17.113635 -0.196897 1.184175 4.402497 -0.129013 3.432312 -0.998300 3.923099 62.374052 -15.659310 56.664639 -12.714601 -28.896437 88.037143 -46.112328 36.818995 41.141163 -8.972007 -1.968762 -6.768299 -56.737685 -12.246898 -54.620142 -13.837941 -28.837605 -52.658860 47.432645 21.844345 -44.043580 0.440015 -11.733053 -3.098134 0.024481 -1.810891 1.412221 0.792718 6.093100 0.059809 -0.005928 -0.017805 0.007261 0.380735 -11.736458 0.497808 0.379755 -0.998524 2.051338 -0.704262 5.119680 -0.875592 0.043511 -0.002646 -0.007715 
12.262729 5.345225 82.975471 -6.825598 -3.587387 -112.660009 0.286504 -3.277271 -1.240470 0.121278 -1.455538 -0.542335 0.121278 -1.455537 -0.542338 0.089662 -1.091761 -0.406438 0.676722 -17.051390 -0.195838 1.184185 4.518083 -0.126677 3.433760 -1.041679 3.936874 62.737910 -15.602298 56.741267 -12.913298 -28.188512 88.273215 -46.113100 37.427285 41.381357 -8.970718 -2.038420 -6.819456 -57.046802 -12.190520 -54.704696 -13.863385 -28.008587 -52.819957 47.279686 22.050374 -44.006687 0.428624 -11.664194 -3.065936 0.024010 -1.806302 1.376863 0.800446 6.075736 0.056377 -0.002241 -0.017176 0.008807 0.369066 -11.676236 0.545344 0.380825 -0.969639 2.024088 -0.710007 5.086415 -0.910322 0.044665 -0.004120 -0.008242 
12.247911 5.362214 82.977913 -6.774672 -3.562389 -112.658575 0.283136 -3.254904 -1.238651 0.118780 -1.445474 -0.542466 0.118780 -1.445473 -0.542464 0.087797 -1.084211 -0.406546 0.676809 -16.986354 -0.194201 1.185183 4.638848 -0.123100 3.431460 -1.103739 3.956682 63.111187 -15.532757 56.810802 -13.058406 -27.473878 88.509334 -46.107076 38.061065 41.649268 -8.972609 -2.098454 -6.872742 -57.394537 -12.135304 -54.750711 -13.932660 -27.177516 -52.991196 47.130655 22.268447 -44.059686 0.419937 -11.595166 -3.030252 0.023658 -1.802180 1.344209 0.803894 6.058775 0.051284 0.001764 -0.017427 0.010797 0.359191 -11.613582 0.609351 0.379740 -0.947087 1.992936 -0.715274 5.058339 -0.934586 0.044833 -0.007016 -0.008902 
12.233881 5.376470 82.980347 -6.724788 -3.537256 -112.656061 0.281036 -3.229958 -1.239793 0.117391 -1.434023 -0.543571 0.117390 -1.434024 -0.543575 0.086762 -1.075622 -0.407381 0.676791 -16.924819 -0.192132 1.186129 4.753104 -0.118793 3.427010 -1.165478 3.990613 63.497919 -15.468435 56.850267 -13.192216 -26.734803 88.747168 -46.169313 38.748203 41.897842 -8.982295 -2.173198 -6.918126 -57.763449 -12.089358 -54.759665 -13.974704 -26.352258 -53.217778 47.046124 22.517450 -44.141361 0.411377 -11.532906 -3.016631 0.024784 -1.788297 1.325706 0.806633 6.037274 0.054643 0.004455 -0.017175 0.011733 0.352092 -11.555028 0.681180 0.377332 -0.920810 1.948716 -0.720870 5.029293 -0.953004 0.044159 -0.008871 -0.009490 
12.222200 5.388704 82.982582 -6.676969 -3.513988 -112.648111 0.275124 -3.197375 -1.239844 0.115088 -1.419232 -0.544084 0.115088 -1.419232 -0.544084 0.085048 -1.064527 -0.407776 0.682869 -16.873263 -0.195048 1.196587 4.848849 -0.121638 3.430944 -1.231336 4.016607 63.906665 -15.421826 56.846182 -13.319653 -25.963572 89.002809 -46.277202 39.412702 42.080908 -9.004164 -2.248619 -6.965642 -58.130627 -12.057560 -54.735708 -13.991753 -25.543434 -53.473401 46.970866 22.810969 -44.190713 0.404769 -11.480987 -3.027330 0.027171 -1.764835 1.313311 0.810345 6.013914 0.071459 0.005824 -0.016921 0.011739 0.346586 -11.501652 0.749330 0.377218 -0.892891 1.894706 -0.727508 5.001774 -0.970131 0.043394 -0.010781 -0.009840 
12.211984 5.399787 82.984329 -6.629984 -3.491290 -112.634635 0.265450 -3.162835 -1.238520 0.111387 -1.403815 -0.543695 0.111387 -1.403816 -0.543694 0.082288 -1.052962 -0.407494 0.695152 -16.827732 -0.204762 1.216123 4.933417 -0.134965 3.439368 -1.299656 4.032855 64.368563 -15.359190 56.802052 -13.373267 -25.233336 89.261447 -46.340443 39.979536 42.214274 -9.037633 -2.310527 -7.016676 -58.499109 -12.016765 -54.687081 -14.020908 -24.773395 -53.733850 46.885127 23.106552 -44.193144 0.398098 -11.432553 -3.042842 0.032839 -1.739674 1.296999 0.813226 5.991336 0.092533 0.006424 -0.016655 0.011905 0.342716 -11.448377 0.795604 0.378192 -0.868334 1.848625 -0.734379 4.978354 -0.986301 0.042013 -0.013677 -0.010606 
12.201406 5.410872 82.985504 -6.584424 -3.469412 -112.615633 0.255018 -3.126965 -1.235642 0.107341 -1.388020 -0.542660 0.107341 -1.388020 -0.542665 0.079269 -1.041112 -0.406732 0.709708 -16.786874 -0.219590 1.238052 5.009339 -0.156989 3.442693 -1.374293 4.042479 64.866245 -15.281343 56.730738 -13.340851 -24.532638 89.511876 -46.313009 40.449453 42.319801 -9.076562 -2.377598 -7.068042 -58.877761 -11.960999 -54.632129 -14.085545 -24.055643 -53.980252 46.752522 23.422184 -44.233811 0.399771 -11.384528 -3.034254 0.025747 -1.718063 1.260453 0.820249 5.973396 0.100828 0.008100 -0.017683 0.012838 0.338576 -11.392725 0.817266 0.380386 -0.850586 1.816984 -0.739234 4.959051 -0.995361 0.039444 -0.017214 -0.011952 
12.186962 5.423336 82.987045 -6.534861 -3.449133 -112.597711 0.245241 -3.086577 -1.229001 0.103671 -1.370772 -0.540576 0.103671 -1.370772 -0.540580 0.076537 -1.028171 -0.405181 0.722392 -16.752388 -0.237075 1.255542 5.073471 -0.184634 3.448717 -1.468413 4.054827 65.343450 -15.207860 56.666156 -13.248859 -23.826973 89.723831 -46.327910 40.857577 42.400158 -9.113345 -2.456453 -7.112593 -59.237104 -11.909540 -54.585909 -14.196265 -23.339740 -54.210224 46.653249 23.696850 -44.346509 0.401796 -11.323850 -2.999626 0.023705 -1.708892 1.208384 0.824024 5.955348 0.100679 0.009377 -0.015998 0.013978 0.333727 -11.329023 0.821963 0.388030 -0.836703 1.798601 -0.744067 4.938097 -0.987324 0.035862 -0.019903 -0.013434 
12.168433 5.438334 82.988914 -6.486935 -3.426711 -112.578286 0.237770 -3.046998 -1.229682 0.100464 -1.353756 -0.541889 0.100464 -1.353756 -0.541891 0.074144 -1.015407 -0.406179 0.726799 -16.720739 -0.250393 1.259137 5.132328 -0.207522 3.460910 -1.552660 4.085267 65.792801 -15.163022 56.588807 -13.130603 -23.106916 89.906770 -46.431336 41.252256 42.441221 -9.152900 -2.531685 -7.142761 -59.584501 -11.882761 -54.525605 -14.285998 -22.605372 -54.472668 46.564774 23.928803 -44.477034 0.398168 -11.257142 -2.950066 0.027899 -1.707576 1.147805 0.822967 5.938849 0.094555 0.011389 -0.015062 0.014783 0.326528 -11.261110 0.814848 0.397099 -0.825908 1.792732 -0.750069 4.914718 -0.991441 0.032482 -0.021922 -0.014666 
12.148776 5.453556 82.990952 -6.446377 -3.406077 -112.561306 0.227315 -3.016225 -1.226543 0.095731 -1.340107 -0.541152 0.095731 -1.340106 -0.541154 0.070608 -1.005165 -0.405634 0.732631 -16.679462 -0.264857 1.265001 5.209077 -0.231948 3.478766 -1.630231 4.102134 66.252582 -15.129812 56.502132 -12.991295 -22.418843 90.067956 -46.549577 41.636700 42.446108 -9.180923 -2.600543 -7.188859 -59.941119 -11.855112 -54.452454 -14.354807 -21.887654 -54.759641 46.466064 24.174876 -44.580624 0.393591 -11.196805 -2.897760 0.030459 -1.706036 1.089761 0.821720 5.921855 0.085741 0.013689 -0.014873 0.015989 0.317966 -11.203511 0.809239 0.406217 -0.808513 1.789224 -0.754580 4.887451 -1.010296 0.028086 -0.023574 -0.015704 
12.128285 5.466015 82.992851 -6.404334 -3.384842 -112.546942 0.215765 -2.999838 -1.219630 0.089875 -1.332518 -0.538989 0.089875 -1.332518 -0.538991 0.066227 -0.999469 -0.404027 0.738504 -16.616032 -0.276112 1.272150 5.326937 -0.250229 3.495939 -1.679548 4.117308 66.725634 -15.077897 56.394543 -12.775463 -21.783217 90.212326 -46.628639 41.975580 42.432974 -9.202053 -2.651075 -7.239096 -60.299355 -11.811541 -54.394103 -14.433740 -21.216997 -55.050198 46.367781 24.420887 -44.595254 0.394156 -11.136322 -2.846427 0.026874 -1.700916 1.037826 0.819998 5.903517 0.072186 0.016229 -0.015049 0.017263 0.312076 -11.147118 0.822185 0.411520 -0.786337 1.776056 -0.758831 4.858895 -1.026090 0.024626 -0.025424 -0.015831 
12.109249 5.475798 82.994423 -6.358340 -3.362805 -112.534852 0.204081 -2.992160 -1.205077 0.084293 -1.328447 -0.533156 0.084293 -1.328448 -0.533159 0.062058 -0.996410 -0.399666 0.745227 -16.534377 -0.289198 1.280273 5.478655 -0.271464 3.504270 -1.722779 4.122470 67.202218 -15.011082 56.272931 -12.506156 -21.177732 90.355623 -46.686932 42.262878 42.396367 -9.228422 -2.661933 -7.296668 -60.650755 -11.775316 -54.323295 -14.528967 -20.583465 -55.336407 46.247887 24.680019 -44.567661 0.397358 -11.076329 -2.820090 0.020703 -1.689798 1.005558 0.817757 5.884530 0.065788 0.019190 -0.015883 0.018473 0.307719 -11.087169 0.853412 0.416052 -0.767212 1.744271 -0.760878 4.834932 -1.026819 0.019964 -0.027674 -0.016229 
